# xmcd
# 
# Track frame offsets:
#     150
#     24457
#     47897
#     68445
#     90682
#     114800
#     145937
# 
# Disc length: 2303
# 
# Revision: 1
# Processed by: cddbd v1.5.2PL0 Copyright (c) Steve Scherf et al.
# Submitted via: BonkEnc v1.0.8
# 
DISCID=5208fd07
DTITLE=Lee Ritenour - Friendship
DYEAR=1979
DGENRE=Fusion
TTITLE0=Bullet Train
TTITLE1=Tighten Up
TTITLE2=The Situation
TTITLE3=Let's Not Talk About It
TTITLE4=Here Today Hear Tomorrow
TTITLE5=Waterwings
TTITLE6=The Real Thing
EXTD=YEAR: 1979
EXTT0=
EXTT1=
EXTT2=
EXTT3=
EXTT4=
EXTT5=
EXTT6=
PLAYORDER=
